<svg width="498" height="106" viewBox="0 0 498 106" fill="none" xmlns="http://www.w3.org/2000/svg">
<path d="M1 96.5844V9.7643C1 7.85821 1.65086 6.2543 2.95258 4.95258C4.2543 3.65086 5.81172 3 7.62483 3H46.6067C66.7834 3 81.451 7.04463 90.6095 15.1339C99.8145 23.1767 104.417 35.8219 104.417 53.0697C104.417 70.271 99.8145 82.8931 90.6095 90.9358C81.451 98.9786 66.7834 103 46.6067 103H7.62483C5.81172 103 4.2543 102.396 2.95258 101.187C1.65086 99.9317 1 98.3975 1 96.5844ZM27.2901 83.265H45.8396C58.3454 83.265 66.8531 80.987 71.3626 76.431C75.8721 71.8749 78.1269 64.0879 78.1269 53.0697C78.1269 42.0051 75.8721 34.1948 71.3626 29.6388C66.8531 25.0363 58.3454 22.735 45.8396 22.735H27.2901V83.265Z" fill="black"/>
<path d="M266.412 96.4449V9.62483C266.412 7.81172 267.039 6.2543 268.294 4.95258C269.55 3.65086 271.084 3 272.897 3H293.399C295.026 3 296.746 3.65086 298.559 4.95258C300.373 6.2543 301.86 7.81172 303.022 9.62483L345.142 74.4086V9.48536C345.142 7.67225 345.77 6.13808 347.025 4.88285C348.327 3.62762 349.884 3 351.698 3H363.692C365.505 3 367.039 3.62762 368.294 4.88285C369.596 6.13808 370.247 7.71874 370.247 9.62483V96.4449C370.247 98.258 369.596 99.8154 368.294 101.117C367.039 102.372 365.505 103 363.692 103H340.54C338.727 103 336.867 102.372 334.961 101.117C333.055 99.8154 331.544 98.258 330.428 96.4449L291.865 36.6123V96.4449C291.865 98.258 291.214 99.8154 289.912 101.117C288.657 102.372 287.123 103 285.31 103H273.036C271.223 103 269.666 102.372 268.364 101.117C267.062 99.8154 266.412 98.258 266.412 96.4449Z" fill="black"/>
<path d="M118.713 96.3054V9.7643C118.713 7.85821 119.341 6.2543 120.596 4.95258C121.851 3.65086 123.385 3 125.198 3H153.58C155.393 3 157.114 3.65086 158.741 4.95258C160.368 6.2543 161.46 7.81172 162.018 9.62483L182.59 69.1785L203.162 9.62483C203.72 7.81172 204.812 6.2543 206.44 4.95258C208.067 3.65086 209.787 3 211.6 3H239.982C241.795 3 243.306 3.65086 244.515 4.95258C245.77 6.2543 246.398 7.85821 246.398 9.7643V96.3054C246.398 98.2115 245.747 99.8154 244.445 101.117C243.19 102.372 241.656 103 239.843 103H227.29C225.477 103 223.92 102.372 222.618 101.117C221.363 99.8154 220.735 98.2115 220.735 96.3054V28.1743L196.119 96.7238C195.468 98.444 194.329 99.9317 192.702 101.187C191.075 102.396 189.354 103 187.541 103H177.569C175.756 103 174.036 102.396 172.409 101.187C170.828 99.9317 169.689 98.444 168.992 96.7238L144.445 28.1743V96.3054C144.445 98.2115 143.794 99.8154 142.493 101.117C141.237 102.372 139.703 103 137.89 103H125.338C123.525 103 121.967 102.372 120.665 101.117C119.364 99.8154 118.713 98.2115 118.713 96.3054Z" fill="black"/>
<path d="M483.136 92.666C473.64 100.998 459.675 105.165 441.242 105.165C422.855 105.165 408.89 100.998 399.347 92.666C389.805 84.2871 385.033 71.0438 385.033 52.936C385.033 34.8283 389.805 21.6082 399.347 13.2759C408.89 4.94352 422.855 0.777344 441.242 0.777344C459.675 0.777344 473.64 4.94352 483.136 13.2759C492.679 21.6082 497.45 34.8283 497.45 52.936C497.45 71.0438 492.679 84.2871 483.136 92.666ZM464.074 28.0088C459.373 22.4229 451.762 19.6299 441.242 19.6299C430.768 19.6299 423.157 22.4229 418.409 28.0088C413.708 33.5947 411.357 41.9271 411.357 53.0059C411.357 64.0381 413.708 72.3472 418.409 77.9331C423.157 83.4725 430.768 86.2422 441.242 86.2422C451.762 86.2422 459.373 83.4725 464.074 77.9331C468.776 72.3472 471.126 64.0381 471.126 53.0059C471.126 41.9271 468.776 33.5947 464.074 28.0088Z" fill="black"/>
</svg>
