<svg width="695" height="146" viewBox="0 0 695 146" fill="none" xmlns="http://www.w3.org/2000/svg">
<g clip-path="url(#clip0_839_269)">
<path d="M0 133.984V12.4023C0 9.73307 0.911458 7.48698 2.73438 5.66406C4.55729 3.84115 6.73828 2.92969 9.27734 2.92969H63.8672C92.1224 2.92969 112.663 8.59375 125.488 19.9219C138.379 31.1849 144.824 48.8932 144.824 73.0469C144.824 97.1354 138.379 114.811 125.488 126.074C112.663 137.337 92.1224 142.969 63.8672 142.969H9.27734C6.73828 142.969 4.55729 142.122 2.73438 140.43C0.911458 138.672 0 136.523 0 133.984ZM36.8164 115.332H62.793C80.306 115.332 92.2201 112.142 98.5352 105.762C104.85 99.3815 108.008 88.4766 108.008 73.0469C108.008 57.5521 104.85 46.6146 98.5352 40.2344C92.2201 33.7891 80.306 30.5664 62.793 30.5664H36.8164V115.332Z" fill="black"/>
<path d="M164.844 133.594V12.4023C164.844 9.73307 165.723 7.48698 167.48 5.66406C169.238 3.84115 171.387 2.92969 173.926 2.92969H213.672C216.211 2.92969 218.62 3.84115 220.898 5.66406C223.177 7.48698 224.707 9.66797 225.488 12.207L254.297 95.6055L283.105 12.207C283.887 9.66797 285.417 7.48698 287.695 5.66406C289.974 3.84115 292.383 2.92969 294.922 2.92969H334.668C337.207 2.92969 339.323 3.84115 341.016 5.66406C342.773 7.48698 343.652 9.73307 343.652 12.4023V133.594C343.652 136.263 342.741 138.509 340.918 140.332C339.16 142.09 337.012 142.969 334.473 142.969H316.895C314.355 142.969 312.174 142.09 310.352 140.332C308.594 138.509 307.715 136.263 307.715 133.594V38.1836L273.242 134.18C272.331 136.589 270.736 138.672 268.457 140.43C266.178 142.122 263.77 142.969 261.23 142.969H247.266C244.727 142.969 242.318 142.122 240.039 140.43C237.826 138.672 236.23 136.589 235.254 134.18L200.879 38.1836V133.594C200.879 136.263 199.967 138.509 198.145 140.332C196.387 142.09 194.238 142.969 191.699 142.969H174.121C171.582 142.969 169.401 142.09 167.578 140.332C165.755 138.509 164.844 136.263 164.844 133.594Z" fill="black"/>
<path d="M371.68 133.789V12.207C371.68 9.66797 372.559 7.48698 374.316 5.66406C376.074 3.84115 378.223 2.92969 380.762 2.92969H409.473C411.751 2.92969 414.16 3.84115 416.699 5.66406C419.238 7.48698 421.322 9.66797 422.949 12.207L481.934 102.93V12.0117C481.934 9.47266 482.812 7.32422 484.57 5.56641C486.393 3.80859 488.574 2.92969 491.113 2.92969H507.91C510.449 2.92969 512.598 3.80859 514.355 5.56641C516.178 7.32422 517.09 9.53776 517.09 12.207V133.789C517.09 136.328 516.178 138.509 514.355 140.332C512.598 142.09 510.449 142.969 507.91 142.969H475.488C472.949 142.969 470.345 142.09 467.676 140.332C465.007 138.509 462.891 136.328 461.328 133.789L407.324 50V133.789C407.324 136.328 406.413 138.509 404.59 140.332C402.832 142.09 400.684 142.969 398.145 142.969H380.957C378.418 142.969 376.237 142.09 374.414 140.332C372.591 138.509 371.68 136.328 371.68 133.789Z" fill="black"/>
<path d="M674.316 128.516C661.035 140.169 641.504 145.996 615.723 145.996C590.007 145.996 570.475 140.169 557.129 128.516C543.783 116.797 537.109 98.2747 537.109 72.9492C537.109 47.6237 543.783 29.1341 557.129 17.4805C570.475 5.82682 590.007 0 615.723 0C641.504 0 661.035 5.82682 674.316 17.4805C687.663 29.1341 694.336 47.6237 694.336 72.9492C694.336 98.2747 687.663 116.797 674.316 128.516ZM647.656 38.0859C641.081 30.2734 630.436 26.3672 615.723 26.3672C601.074 26.3672 590.43 30.2734 583.789 38.0859C577.214 45.8984 573.926 57.5521 573.926 73.0469C573.926 88.4766 577.214 100.098 583.789 107.91C590.43 115.658 601.074 119.531 615.723 119.531C630.436 119.531 641.081 115.658 647.656 107.91C654.232 100.098 657.52 88.4766 657.52 73.0469C657.52 57.5521 654.232 45.8984 647.656 38.0859Z" fill="black"/>
</g>
<defs>
<clipPath id="clip0_839_269">
<rect width="695" height="146" fill="white"/>
</clipPath>
</defs>
</svg>
