<svg width="994" height="200" viewBox="0 0 994 200" fill="none" xmlns="http://www.w3.org/2000/svg">
<rect width="400" height="200" rx="30" fill="white"/>
<path d="M344 100C344 122.091 326.091 140 304 140C303.99 140 303.98 140 303.971 140H264V60L304 60C326.091 60 344 77.9086 344 100Z" fill="black"/>
<ellipse cx="100" cy="100" rx="25" ry="25" transform="rotate(90 100 100)" fill="black"/>
<path d="M204.5 20V180" stroke="black" stroke-width="4"/>
<path d="M441 147.621V52.6843C441 50.6 441.711 48.8462 443.134 47.4227C444.557 45.9993 446.26 45.2876 448.242 45.2876H490.855C512.911 45.2876 528.945 49.7104 538.956 58.5559C549.019 67.3505 554.05 81.1779 554.05 100.038C554.05 118.847 549.019 132.649 538.956 141.444C528.945 150.239 512.911 154.636 490.855 154.636H448.242C446.26 154.636 444.557 153.975 443.134 152.654C441.711 151.281 441 149.603 441 147.621ZM469.739 133.056H490.016C503.687 133.056 512.987 130.565 517.917 125.583C522.846 120.601 525.311 112.086 525.311 100.038C525.311 87.9391 522.846 79.3987 517.917 74.4167C512.987 69.3839 503.687 66.8676 490.016 66.8676H469.739V133.056Z" fill="white"/>
<path d="M569.677 147.316V52.6843C569.677 50.6 570.363 48.8462 571.736 47.4227C573.108 45.9993 574.785 45.2876 576.767 45.2876H607.793C609.775 45.2876 611.655 45.9993 613.434 47.4227C615.212 48.8462 616.407 50.5492 617.017 52.5318L639.505 117.653L661.993 52.5318C662.603 50.5492 663.797 48.8462 665.576 47.4227C667.354 45.9993 669.235 45.2876 671.217 45.2876H702.242C704.224 45.2876 705.876 45.9993 707.197 47.4227C708.57 48.8462 709.256 50.6 709.256 52.6843V147.316C709.256 149.4 708.544 151.154 707.121 152.577C705.749 153.95 704.072 154.636 702.09 154.636H688.368C686.387 154.636 684.684 153.95 683.261 152.577C681.889 151.154 681.203 149.4 681.203 147.316V72.8154L654.293 147.773C653.582 149.654 652.337 151.281 650.558 152.654C648.779 153.975 646.899 154.636 644.917 154.636H634.016C632.034 154.636 630.154 153.975 628.375 152.654C626.647 151.281 625.402 149.654 624.64 147.773L597.806 72.8154V147.316C597.806 149.4 597.095 151.154 595.672 152.577C594.3 153.95 592.623 154.636 590.641 154.636H576.919C574.937 154.636 573.235 153.95 571.812 152.577C570.389 151.154 569.677 149.4 569.677 147.316Z" fill="white"/>
<path d="M731.134 147.468V52.5318C731.134 50.5492 731.82 48.8462 733.192 47.4227C734.564 45.9993 736.241 45.2876 738.223 45.2876H760.635C762.414 45.2876 764.294 45.9993 766.276 47.4227C768.258 48.8462 769.884 50.5492 771.155 52.5318L817.198 123.372V52.3793C817.198 50.3967 817.884 48.7191 819.257 47.3465C820.68 45.9739 822.382 45.2876 824.364 45.2876H837.476C839.458 45.2876 841.135 45.9739 842.507 47.3465C843.93 48.7191 844.641 50.4475 844.641 52.5318V147.468C844.641 149.451 843.93 151.154 842.507 152.577C841.135 153.95 839.458 154.636 837.476 154.636H812.167C810.185 154.636 808.152 153.95 806.069 152.577C803.985 151.154 802.333 149.451 801.114 147.468L758.958 82.0421V147.468C758.958 149.451 758.247 151.154 756.824 152.577C755.451 153.95 753.774 154.636 751.792 154.636H738.376C736.394 154.636 734.691 153.95 733.268 152.577C731.845 151.154 731.134 149.451 731.134 147.468Z" fill="white"/>
<path d="M967.373 143.35C957.005 152.45 941.759 157 921.634 157C901.56 157 886.314 152.45 875.896 143.35C865.478 134.2 860.269 119.737 860.269 99.9619C860.269 80.1866 865.478 65.7492 875.896 56.6495C886.314 47.5498 901.56 43 921.634 43C941.759 43 957.005 47.5498 967.373 56.6495C977.791 65.7492 983 80.1866 983 99.9619C983 119.737 977.791 134.2 967.373 143.35ZM946.562 72.7391C941.429 66.6388 933.12 63.5886 921.634 63.5886C910.2 63.5886 901.891 66.6388 896.707 72.7391C891.574 78.8395 889.008 87.9391 889.008 100.038C889.008 112.086 891.574 121.161 896.707 127.261C901.891 133.31 910.2 136.335 921.634 136.335C933.12 136.335 941.429 133.31 946.562 127.261C951.695 121.161 954.261 112.086 954.261 100.038C954.261 87.9391 951.695 78.8395 946.562 72.7391Z" fill="white"/>
</svg>
