<svg width="947" height="200" viewBox="0 0 947 200" fill="none" xmlns="http://www.w3.org/2000/svg">
<g clip-path="url(#clip0_839_275)">
<rect x="2" y="2" width="396" height="196" rx="18" fill="black" stroke="black" stroke-width="4"/>
<path d="M336 100C336 117.673 321.673 132 304 132C303.992 132 303.984 132 303.976 132H272V68H304C321.673 68 336 82.3269 336 100Z" fill="white"/>
<ellipse cx="100" cy="100" rx="25" ry="25" transform="rotate(90 100 100)" fill="white"/>
<path d="M200 20V180" stroke="white" stroke-width="4"/>
<path d="M449.985 143.584V56.7643C449.985 54.8582 450.636 53.2543 451.937 51.9526C453.239 50.6509 454.797 50 456.61 50H495.592C515.768 50 530.436 54.0446 539.594 62.1339C548.799 70.1767 553.402 82.8219 553.402 100.07C553.402 117.271 548.799 129.893 539.594 137.936C530.436 145.979 515.768 150 495.592 150H456.61C454.797 150 453.239 149.396 451.937 148.187C450.636 146.932 449.985 145.397 449.985 143.584ZM476.275 130.265H494.824C507.33 130.265 515.838 127.987 520.347 123.431C524.857 118.875 527.112 111.088 527.112 100.07C527.112 89.0051 524.857 81.1948 520.347 76.6388C515.838 72.0363 507.33 69.735 494.824 69.735H476.275V130.265Z" fill="black"/>
<path d="M715.396 143.445V56.6248C715.396 54.8117 716.024 53.2543 717.279 51.9526C718.535 50.6509 720.069 50 721.882 50H742.384C744.011 50 745.731 50.6509 747.544 51.9526C749.357 53.2543 750.845 54.8117 752.007 56.6248L794.127 121.409V56.4854C794.127 54.6722 794.755 53.1381 796.01 51.8828C797.312 50.6276 798.869 50 800.682 50H812.677C814.49 50 816.024 50.6276 817.279 51.8828C818.581 53.1381 819.232 54.7187 819.232 56.6248V143.445C819.232 145.258 818.581 146.815 817.279 148.117C816.024 149.372 814.49 150 812.677 150H789.525C787.712 150 785.852 149.372 783.946 148.117C782.04 146.815 780.529 145.258 779.413 143.445L740.85 83.6123V143.445C740.85 145.258 740.199 146.815 738.897 148.117C737.642 149.372 736.108 150 734.295 150H722.021C720.208 150 718.651 149.372 717.349 148.117C716.047 146.815 715.396 145.258 715.396 143.445Z" fill="black"/>
<path d="M567.698 143.305V56.7643C567.698 54.8582 568.325 53.2543 569.581 51.9526C570.836 50.6509 572.37 50 574.183 50H602.565C604.378 50 606.098 50.6509 607.726 51.9526C609.353 53.2543 610.445 54.8117 611.003 56.6248L631.575 116.179L652.147 56.6248C652.705 54.8117 653.797 53.2543 655.424 51.9526C657.052 50.6509 658.772 50 660.585 50H688.967C690.78 50 692.291 50.6509 693.5 51.9526C694.755 53.2543 695.383 54.8582 695.383 56.7643V143.305C695.383 145.212 694.732 146.815 693.43 148.117C692.175 149.372 690.641 150 688.827 150H676.275C674.462 150 672.905 149.372 671.603 148.117C670.348 146.815 669.72 145.212 669.72 143.305V75.1743L645.104 143.724C644.453 145.444 643.314 146.932 641.687 148.187C640.059 149.396 638.339 150 636.526 150H626.554C624.741 150 623.021 149.396 621.394 148.187C619.813 146.932 618.674 145.444 617.977 143.724L593.43 75.1743V143.305C593.43 145.212 592.779 146.815 591.477 148.117C590.222 149.372 588.688 150 586.875 150H574.323C572.509 150 570.952 149.372 569.65 148.117C568.349 146.815 567.698 145.212 567.698 143.305Z" fill="black"/>
<path d="M932.121 139.666C922.625 147.998 908.66 152.165 890.227 152.165C871.84 152.165 857.875 147.998 848.332 139.666C838.789 131.287 834.018 118.044 834.018 99.936C834.018 81.8283 838.789 68.6082 848.332 60.2759C857.875 51.9435 871.84 47.7773 890.227 47.7773C908.66 47.7773 922.625 51.9435 932.121 60.2759C941.664 68.6082 946.435 81.8283 946.435 99.936C946.435 118.044 941.664 131.287 932.121 139.666ZM913.059 75.0088C908.358 69.4229 900.747 66.6299 890.227 66.6299C879.753 66.6299 872.142 69.4229 867.394 75.0088C862.693 80.5947 860.342 88.9271 860.342 100.006C860.342 111.038 862.693 119.347 867.394 124.933C872.142 130.472 879.753 133.242 890.227 133.242C900.747 133.242 908.358 130.472 913.059 124.933C917.761 119.347 920.111 111.038 920.111 100.006C920.111 88.9271 917.761 80.5947 913.059 75.0088Z" fill="black"/>
</g>
<defs>
<clipPath id="clip0_839_275">
<rect width="947" height="200" fill="white"/>
</clipPath>
</defs>
</svg>
